<mxfile host="app.diagrams.net" modified="2020-09-19T10:39:21.806Z" agent="5.0 (Macintosh; Intel Mac OS X 10_15_6) AppleWebKit/537.36 (KHTML, like Gecko) Chrome/85.0.4183.102 Safari/537.36" etag="X0KwzNmzm2NHFnl1S0hl" version="13.7.1" type="github">
  <diagram id="Dg1_sUOP-TP0xAykWhyp" name="Page-1">
    <mxGraphModel dx="1186" dy="764" grid="1" gridSize="10" guides="1" tooltips="1" connect="1" arrows="1" fold="1" page="1" pageScale="1" pageWidth="827" pageHeight="1169" math="0" shadow="0">
      <root>
        <mxCell id="0" />
        <mxCell id="1" parent="0" />
        <mxCell id="NxBjr3P24VD916xEP9En-19" style="edgeStyle=orthogonalEdgeStyle;rounded=0;orthogonalLoop=1;jettySize=auto;html=1;entryX=0;entryY=0.5;entryDx=0;entryDy=0;curved=1;" parent="1" source="NxBjr3P24VD916xEP9En-4" target="NxBjr3P24VD916xEP9En-9" edge="1">
          <mxGeometry relative="1" as="geometry" />
        </mxCell>
        <mxCell id="NxBjr3P24VD916xEP9En-20" style="edgeStyle=orthogonalEdgeStyle;curved=1;rounded=0;orthogonalLoop=1;jettySize=auto;html=1;entryX=0;entryY=0.5;entryDx=0;entryDy=0;" parent="1" source="NxBjr3P24VD916xEP9En-13" target="NxBjr3P24VD916xEP9En-11" edge="1">
          <mxGeometry relative="1" as="geometry" />
        </mxCell>
        <mxCell id="DScSA26uc-DHl-dN3_vh-2" style="edgeStyle=orthogonalEdgeStyle;curved=1;rounded=0;orthogonalLoop=1;jettySize=auto;html=1;entryX=0;entryY=0.5;entryDx=0;entryDy=0;" edge="1" parent="1" source="NxBjr3P24VD916xEP9En-4" target="DScSA26uc-DHl-dN3_vh-1">
          <mxGeometry relative="1" as="geometry" />
        </mxCell>
        <mxCell id="DScSA26uc-DHl-dN3_vh-14" style="edgeStyle=orthogonalEdgeStyle;curved=1;rounded=0;orthogonalLoop=1;jettySize=auto;html=1;entryX=0;entryY=0.5;entryDx=0;entryDy=0;" edge="1" parent="1" source="NxBjr3P24VD916xEP9En-4" target="DScSA26uc-DHl-dN3_vh-13">
          <mxGeometry relative="1" as="geometry" />
        </mxCell>
        <mxCell id="DScSA26uc-DHl-dN3_vh-21" style="edgeStyle=orthogonalEdgeStyle;curved=1;rounded=0;orthogonalLoop=1;jettySize=auto;html=1;entryX=0;entryY=0.5;entryDx=0;entryDy=0;" edge="1" parent="1" source="NxBjr3P24VD916xEP9En-4" target="DScSA26uc-DHl-dN3_vh-18">
          <mxGeometry relative="1" as="geometry" />
        </mxCell>
        <mxCell id="NxBjr3P24VD916xEP9En-4" value="&lt;font style=&quot;font-size: 19px&quot;&gt;Hygiene&lt;/font&gt;" style="rounded=1;whiteSpace=wrap;html=1;" parent="1" vertex="1">
          <mxGeometry x="330" y="370" width="120" height="60" as="geometry" />
        </mxCell>
        <mxCell id="NxBjr3P24VD916xEP9En-31" style="edgeStyle=orthogonalEdgeStyle;curved=1;rounded=0;orthogonalLoop=1;jettySize=auto;html=1;entryX=0;entryY=0.75;entryDx=0;entryDy=0;" parent="1" source="NxBjr3P24VD916xEP9En-9" target="NxBjr3P24VD916xEP9En-32" edge="1">
          <mxGeometry relative="1" as="geometry">
            <mxPoint x="850" y="320" as="targetPoint" />
          </mxGeometry>
        </mxCell>
        <mxCell id="NxBjr3P24VD916xEP9En-9" value="&lt;font style=&quot;font-size: 16px&quot;&gt;deodorant/antiperspirant&lt;/font&gt;" style="text;html=1;fillColor=none;align=center;verticalAlign=middle;whiteSpace=wrap;rounded=0;strokeColor=#000000;" parent="1" vertex="1">
          <mxGeometry x="680" y="250" width="180" height="20" as="geometry" />
        </mxCell>
        <mxCell id="NxBjr3P24VD916xEP9En-21" style="edgeStyle=orthogonalEdgeStyle;curved=1;rounded=0;orthogonalLoop=1;jettySize=auto;html=1;entryX=0.25;entryY=1;entryDx=0;entryDy=0;exitX=1;exitY=0.5;exitDx=0;exitDy=0;" parent="1" source="NxBjr3P24VD916xEP9En-4" target="NxBjr3P24VD916xEP9En-13" edge="1">
          <mxGeometry relative="1" as="geometry" />
        </mxCell>
        <mxCell id="NxBjr3P24VD916xEP9En-34" value="" style="edgeStyle=orthogonalEdgeStyle;curved=1;rounded=0;orthogonalLoop=1;jettySize=auto;html=1;" parent="1" source="NxBjr3P24VD916xEP9En-11" target="NxBjr3P24VD916xEP9En-33" edge="1">
          <mxGeometry relative="1" as="geometry" />
        </mxCell>
        <mxCell id="NxBjr3P24VD916xEP9En-36" style="edgeStyle=orthogonalEdgeStyle;curved=1;rounded=0;orthogonalLoop=1;jettySize=auto;html=1;entryX=0;entryY=0.5;entryDx=0;entryDy=0;" parent="1" source="NxBjr3P24VD916xEP9En-11" target="NxBjr3P24VD916xEP9En-35" edge="1">
          <mxGeometry relative="1" as="geometry" />
        </mxCell>
        <mxCell id="NxBjr3P24VD916xEP9En-11" value="&lt;font style=&quot;font-size: 16px&quot;&gt;Bath&lt;/font&gt;" style="text;html=1;fillColor=none;align=center;verticalAlign=middle;whiteSpace=wrap;rounded=0;strokeColor=#000000;" parent="1" vertex="1">
          <mxGeometry x="970" y="410" width="40" height="20" as="geometry" />
        </mxCell>
        <mxCell id="NxBjr3P24VD916xEP9En-12" style="edgeStyle=orthogonalEdgeStyle;rounded=0;orthogonalLoop=1;jettySize=auto;html=1;exitX=0.5;exitY=1;exitDx=0;exitDy=0;" parent="1" source="NxBjr3P24VD916xEP9En-11" target="NxBjr3P24VD916xEP9En-11" edge="1">
          <mxGeometry relative="1" as="geometry" />
        </mxCell>
        <mxCell id="NxBjr3P24VD916xEP9En-25" style="edgeStyle=orthogonalEdgeStyle;curved=1;rounded=0;orthogonalLoop=1;jettySize=auto;html=1;entryX=0;entryY=0.75;entryDx=0;entryDy=0;" parent="1" source="NxBjr3P24VD916xEP9En-13" target="NxBjr3P24VD916xEP9En-24" edge="1">
          <mxGeometry relative="1" as="geometry" />
        </mxCell>
        <mxCell id="NxBjr3P24VD916xEP9En-37" style="edgeStyle=orthogonalEdgeStyle;curved=1;rounded=0;orthogonalLoop=1;jettySize=auto;html=1;entryX=0;entryY=0.75;entryDx=0;entryDy=0;" parent="1" source="NxBjr3P24VD916xEP9En-13" target="NxBjr3P24VD916xEP9En-17" edge="1">
          <mxGeometry relative="1" as="geometry" />
        </mxCell>
        <mxCell id="NxBjr3P24VD916xEP9En-13" value="&lt;font style=&quot;font-size: 16px&quot;&gt;Take a shower(bath) every day&lt;/font&gt;" style="text;html=1;fillColor=none;align=center;verticalAlign=middle;whiteSpace=wrap;rounded=0;strokeColor=#000000;" parent="1" vertex="1">
          <mxGeometry x="670" y="420" width="240" height="20" as="geometry" />
        </mxCell>
        <mxCell id="NxBjr3P24VD916xEP9En-17" value="&lt;span style=&quot;font-size: 16px&quot;&gt;Soap&lt;/span&gt;" style="text;html=1;fillColor=none;align=center;verticalAlign=middle;whiteSpace=wrap;rounded=0;strokeColor=#000000;" parent="1" vertex="1">
          <mxGeometry x="970" y="500" width="50" height="20" as="geometry" />
        </mxCell>
        <mxCell id="NxBjr3P24VD916xEP9En-24" value="&lt;span style=&quot;font-size: 16px&quot;&gt;Shower&lt;/span&gt;" style="text;html=1;fillColor=none;align=center;verticalAlign=middle;whiteSpace=wrap;rounded=0;strokeColor=#000000;" parent="1" vertex="1">
          <mxGeometry x="970" y="350" width="70" height="20" as="geometry" />
        </mxCell>
        <mxCell id="NxBjr3P24VD916xEP9En-32" value="&lt;font style=&quot;font-size: 16px&quot;&gt;It is a substance applied to the body to prevent body odor&lt;/font&gt;" style="text;html=1;fillColor=none;align=center;verticalAlign=middle;whiteSpace=wrap;rounded=0;strokeColor=#000000;" parent="1" vertex="1">
          <mxGeometry x="960" y="240" width="420" height="20" as="geometry" />
        </mxCell>
        <mxCell id="NxBjr3P24VD916xEP9En-33" value="&lt;font style=&quot;font-size: 16px&quot;&gt;Bathtub&lt;/font&gt;" style="text;html=1;fillColor=none;align=center;verticalAlign=middle;whiteSpace=wrap;rounded=0;strokeColor=#000000;" parent="1" vertex="1">
          <mxGeometry x="1110" y="390" width="70" height="20" as="geometry" />
        </mxCell>
        <mxCell id="NxBjr3P24VD916xEP9En-35" value="&lt;span style=&quot;font-size: 16px&quot;&gt;Rubber docky&lt;/span&gt;" style="text;html=1;fillColor=none;align=center;verticalAlign=middle;whiteSpace=wrap;rounded=0;strokeColor=#000000;" parent="1" vertex="1">
          <mxGeometry x="1110" y="460" width="110" height="20" as="geometry" />
        </mxCell>
        <mxCell id="DScSA26uc-DHl-dN3_vh-5" style="edgeStyle=orthogonalEdgeStyle;curved=1;rounded=0;orthogonalLoop=1;jettySize=auto;html=1;entryX=0;entryY=0.5;entryDx=0;entryDy=0;" edge="1" parent="1" source="DScSA26uc-DHl-dN3_vh-1" target="DScSA26uc-DHl-dN3_vh-3">
          <mxGeometry relative="1" as="geometry" />
        </mxCell>
        <mxCell id="DScSA26uc-DHl-dN3_vh-6" style="edgeStyle=orthogonalEdgeStyle;curved=1;rounded=0;orthogonalLoop=1;jettySize=auto;html=1;entryX=0;entryY=0.5;entryDx=0;entryDy=0;" edge="1" parent="1" source="DScSA26uc-DHl-dN3_vh-1" target="DScSA26uc-DHl-dN3_vh-4">
          <mxGeometry relative="1" as="geometry" />
        </mxCell>
        <mxCell id="DScSA26uc-DHl-dN3_vh-9" style="edgeStyle=orthogonalEdgeStyle;curved=1;rounded=0;orthogonalLoop=1;jettySize=auto;html=1;entryX=0;entryY=0.5;entryDx=0;entryDy=0;" edge="1" parent="1" source="DScSA26uc-DHl-dN3_vh-1" target="DScSA26uc-DHl-dN3_vh-7">
          <mxGeometry relative="1" as="geometry" />
        </mxCell>
        <mxCell id="DScSA26uc-DHl-dN3_vh-10" style="edgeStyle=orthogonalEdgeStyle;curved=1;rounded=0;orthogonalLoop=1;jettySize=auto;html=1;entryX=0;entryY=0.75;entryDx=0;entryDy=0;" edge="1" parent="1" source="DScSA26uc-DHl-dN3_vh-1" target="DScSA26uc-DHl-dN3_vh-8">
          <mxGeometry relative="1" as="geometry" />
        </mxCell>
        <mxCell id="DScSA26uc-DHl-dN3_vh-1" value="&lt;span style=&quot;font-size: 16px&quot;&gt;Brush teeth three times a day&lt;/span&gt;" style="text;html=1;fillColor=none;align=center;verticalAlign=middle;whiteSpace=wrap;rounded=0;strokeColor=#000000;" vertex="1" parent="1">
          <mxGeometry x="680" y="585" width="240" height="20" as="geometry" />
        </mxCell>
        <mxCell id="DScSA26uc-DHl-dN3_vh-3" value="&lt;span style=&quot;font-size: 16px&quot;&gt;mouth wash&lt;/span&gt;" style="text;html=1;fillColor=none;align=center;verticalAlign=middle;whiteSpace=wrap;rounded=0;strokeColor=#000000;" vertex="1" parent="1">
          <mxGeometry x="960" y="540" width="90" height="20" as="geometry" />
        </mxCell>
        <mxCell id="DScSA26uc-DHl-dN3_vh-4" value="&lt;span style=&quot;font-size: 16px&quot;&gt;floss&lt;/span&gt;" style="text;html=1;fillColor=none;align=center;verticalAlign=middle;whiteSpace=wrap;rounded=0;strokeColor=#000000;" vertex="1" parent="1">
          <mxGeometry x="960" y="575" width="90" height="20" as="geometry" />
        </mxCell>
        <mxCell id="DScSA26uc-DHl-dN3_vh-7" value="&lt;span style=&quot;font-size: 16px&quot;&gt;toothbrush&lt;/span&gt;" style="text;html=1;fillColor=none;align=center;verticalAlign=middle;whiteSpace=wrap;rounded=0;strokeColor=#000000;" vertex="1" parent="1">
          <mxGeometry x="960" y="605" width="90" height="20" as="geometry" />
        </mxCell>
        <mxCell id="DScSA26uc-DHl-dN3_vh-8" value="&lt;span style=&quot;font-size: 16px&quot;&gt;toothpaste&lt;/span&gt;" style="text;html=1;fillColor=none;align=center;verticalAlign=middle;whiteSpace=wrap;rounded=0;strokeColor=#000000;" vertex="1" parent="1">
          <mxGeometry x="960" y="640" width="90" height="20" as="geometry" />
        </mxCell>
        <mxCell id="DScSA26uc-DHl-dN3_vh-17" style="edgeStyle=orthogonalEdgeStyle;curved=1;rounded=0;orthogonalLoop=1;jettySize=auto;html=1;entryX=0;entryY=0.5;entryDx=0;entryDy=0;" edge="1" parent="1" source="DScSA26uc-DHl-dN3_vh-13" target="DScSA26uc-DHl-dN3_vh-15">
          <mxGeometry relative="1" as="geometry" />
        </mxCell>
        <mxCell id="DScSA26uc-DHl-dN3_vh-13" value="&lt;span style=&quot;font-size: 16px&quot;&gt;&amp;nbsp;Wear clean clothe&lt;/span&gt;" style="text;html=1;fillColor=none;align=center;verticalAlign=middle;whiteSpace=wrap;rounded=0;strokeColor=#000000;" vertex="1" parent="1">
          <mxGeometry x="680" y="710" width="240" height="20" as="geometry" />
        </mxCell>
        <mxCell id="DScSA26uc-DHl-dN3_vh-15" value="&lt;span style=&quot;font-size: 16px&quot;&gt;sniff them&lt;/span&gt;" style="text;html=1;fillColor=none;align=center;verticalAlign=middle;whiteSpace=wrap;rounded=0;strokeColor=#000000;" vertex="1" parent="1">
          <mxGeometry x="960" y="700" width="90" height="20" as="geometry" />
        </mxCell>
        <mxCell id="DScSA26uc-DHl-dN3_vh-20" style="edgeStyle=orthogonalEdgeStyle;curved=1;rounded=0;orthogonalLoop=1;jettySize=auto;html=1;entryX=0;entryY=0.5;entryDx=0;entryDy=0;" edge="1" parent="1" source="DScSA26uc-DHl-dN3_vh-18" target="DScSA26uc-DHl-dN3_vh-19">
          <mxGeometry relative="1" as="geometry" />
        </mxCell>
        <mxCell id="DScSA26uc-DHl-dN3_vh-18" value="&lt;span style=&quot;font-size: 16px&quot;&gt;Perfume/Cologne&lt;/span&gt;" style="text;html=1;fillColor=none;align=center;verticalAlign=middle;whiteSpace=wrap;rounded=0;strokeColor=#000000;" vertex="1" parent="1">
          <mxGeometry x="680" y="800" width="240" height="20" as="geometry" />
        </mxCell>
        <mxCell id="DScSA26uc-DHl-dN3_vh-19" value="&lt;font style=&quot;font-size: 16px&quot;&gt;a little is enough&lt;/font&gt;" style="text;html=1;fillColor=none;align=center;verticalAlign=middle;whiteSpace=wrap;rounded=0;strokeColor=#000000;" vertex="1" parent="1">
          <mxGeometry x="960" y="790" width="130" height="20" as="geometry" />
        </mxCell>
      </root>
    </mxGraphModel>
  </diagram>
</mxfile>
